<svg width="568" height="79" viewBox="0 0 568 79" fill="none" xmlns="http://www.w3.org/2000/svg">
<path d="M526.895 78.9925C530.519 78.9925 534.143 78.9925 537.767 78.9925C537.767 69.0921 537.767 59.1918 537.767 49.2914C537.767 48.2212 537.892 47.2933 538.15 46.4099C538.408 45.5264 538.801 44.68 539.379 43.7837C542.993 38.1945 546.607 32.6054 550.221 27.0163C555.367 19.0463 560.523 11.0788 565.678 3.10832C566.239 2.24162 566.799 1.37493 567.36 0.508249C562.744 0.508249 558.128 0.508249 553.512 0.508249C553.317 0.813217 553.123 1.11817 552.929 1.42312C546.061 12.0392 539.199 22.6595 532.331 33.2877C525.46 22.6596 518.6 12.0389 511.728 1.41516C511.53 1.11286 511.333 0.810547 511.135 0.508236C506.524 0.50825 501.912 0.508249 497.301 0.508249C497.862 1.37502 498.423 2.24179 498.983 3.10857C502.272 8.19081 505.558 13.274 508.844 18.3579C512.13 23.4417 515.414 28.5262 518.696 33.6124C519.826 35.3637 520.956 37.1151 522.089 38.8643C523.223 40.6135 524.36 42.3605 525.471 44.1233C525.57 44.2808 525.669 44.4385 525.759 44.6015C525.849 44.7645 525.93 44.933 526.007 45.1025C526.152 45.4195 526.288 45.7403 526.401 46.0692C526.514 46.3982 526.605 46.7354 526.677 47.0761C526.754 47.4399 526.81 47.8077 526.845 48.1776C526.88 48.5476 526.895 48.9197 526.895 49.2914C526.895 59.1918 526.895 69.0921 526.895 78.9925Z" fill="#9A9A9A"/>
<path fill-rule="evenodd" clip-rule="evenodd" d="M486.816 78.9592H475.309H474.19L473.752 77.9335C470.657 70.6944 467.58 63.4484 464.503 56.2C463.813 54.5762 463.123 52.9523 462.434 51.3283C460.829 47.5516 457.156 45.1297 453.034 45.1297H426.561V78.9592H415.693V0.481506H458.012C459.953 0.481506 461.897 0.520229 463.826 0.73574C464.826 0.84743 465.822 1.0066 466.803 1.22599C467.826 1.45453 468.834 1.74842 469.817 2.112C470.859 2.49774 471.873 2.96193 472.845 3.49992C473.487 3.85513 474.111 4.24251 474.712 4.66222C475.551 5.24806 476.347 5.89688 477.089 6.60105C478.58 8.01558 479.856 9.65349 480.882 11.4312C481.95 13.2824 482.748 15.2851 483.292 17.3516C483.819 19.3553 484.108 21.419 484.163 23.4893C484.218 25.5551 484.04 27.6275 483.624 29.652C483.418 30.6523 483.154 31.641 482.831 32.6099C482.607 33.2814 482.355 33.9434 482.074 34.5934C481.653 35.5663 481.167 36.512 480.605 37.4111C480.064 38.2773 479.451 39.1002 478.775 39.867C478.441 40.2461 478.091 40.6115 477.724 40.9596C477.377 41.2892 477.015 41.6034 476.64 41.9012C475.935 42.4608 475.185 42.9631 474.405 43.4134C473.684 43.8299 472.938 44.2019 472.179 44.5447C474.694 50.4593 477.21 56.3755 479.72 62.2854L486.816 78.9592ZM426.571 33.5442H458.022L458.159 33.5442C459.811 33.5443 461.465 33.5444 463.112 33.4129C469.428 33.4129 471.954 29.4377 472.398 24.2486C472.918 18.1571 470.868 12.7841 463.753 12.2514C462.216 12.0957 460.67 12.0638 459.125 12.0638L426.571 12.0679V33.5442Z" fill="#9A9A9A"/>
<path d="M392.82 78.9592C396.654 78.9592 400.487 78.9592 404.321 78.9592C393.254 52.8 382.187 26.6408 371.12 0.481512C368.82 0.481512 366.519 0.481512 364.219 0.481512C363.013 0.481512 361.807 0.492821 360.603 0.567267C359.451 0.638453 358.302 0.767383 357.175 1.00918C356.034 1.25375 354.917 1.61383 353.858 2.1002C352.719 2.62336 351.647 3.29265 350.667 4.07309C349.679 4.85924 348.784 5.75818 347.987 6.73495C347.225 7.66871 346.552 8.67359 345.945 9.71503C345.365 10.7114 344.846 11.7412 344.362 12.787C343.907 13.7687 343.484 14.7646 343.062 15.7601C334.128 36.8265 325.193 57.8929 316.259 78.9592C320.468 78.9592 324.676 78.9592 328.885 78.9592C329.03 78.6159 329.176 78.2726 329.322 77.9293C333.382 68.3587 337.442 58.784 341.506 49.204C345.586 39.5505 349.674 29.9032 353.768 20.2668C353.857 20.0626 353.945 19.8583 354.034 19.6541C354.28 19.0807 354.527 18.5071 354.786 17.9392C354.909 17.67 355.035 17.4021 355.162 17.1352C355.286 16.8767 355.412 16.6192 355.543 16.3643C355.687 16.0838 355.838 15.8065 355.996 15.5332C356.125 15.3088 356.259 15.0872 356.4 14.87C356.623 14.5275 356.864 14.1964 357.133 13.8885C357.137 13.8842 357.141 13.8799 357.145 13.8756C357.148 13.8712 357.152 13.8668 357.156 13.8625C357.387 13.5871 357.662 13.3217 357.956 13.1012C357.977 13.0851 357.997 13.069 358.018 13.0529C358.037 13.0357 358.057 13.0186 358.077 13.0015C358.078 13.0008 358.175 12.9313 358.304 12.8507C358.466 12.7592 358.592 12.6998 358.593 12.6994C358.612 12.6923 358.631 12.6851 358.65 12.6779C358.669 12.6695 358.688 12.6612 358.706 12.6528C358.859 12.5833 358.978 12.5375 359.152 12.4783C359.315 12.4223 359.476 12.3816 359.633 12.3567C359.667 12.3513 359.701 12.3459 359.735 12.3404C359.768 12.3309 359.801 12.3214 359.835 12.3119C359.936 12.2828 360.134 12.2475 360.438 12.2114C360.45 12.21 360.462 12.2086 360.474 12.2072C360.485 12.2053 360.497 12.2034 360.509 12.2014C360.756 12.1616 361.078 12.1316 361.39 12.1146C361.808 12.0981 362.24 12.0815 362.648 12.073C362.898 12.073 363.147 12.073 363.397 12.073C368.392 23.8645 373.377 35.6594 378.364 47.4508C382.664 57.6155 386.958 67.7719 391.261 77.9285C391.406 78.2721 391.552 78.6157 391.697 78.9592C392.071 78.9592 392.446 78.9592 392.82 78.9592Z" fill="#9A9A9A"/>
<path d="M280.286 78.9592H291.153V12.073H318.494V0.481512H252.946V12.073H280.286V78.9592Z" fill="#9A9A9A"/>
<path d="M211.508 0.481502C208.748 0.481502 205.986 0.660289 203.261 1.08968C200.793 1.47843 198.354 2.0726 196.01 2.93162C193.827 3.73141 191.725 4.76077 189.783 6.03523C187.899 7.27122 186.165 8.73773 184.642 10.3948C183.092 12.0817 181.759 13.9661 180.649 15.9689C179.467 18.1009 178.537 20.3672 177.815 22.6943C177.023 25.2484 176.482 27.8758 176.126 30.5255C175.728 33.4834 175.561 36.4689 175.554 39.453C175.555 39.531 175.554 39.7068 175.554 39.8835C175.552 42.7108 175.711 45.7788 176.099 48.7821C176.447 51.4731 176.978 54.1122 177.76 56.6892C178.471 59.03 179.388 61.3195 180.56 63.4738C181.655 65.4847 182.972 67.3776 184.515 69.0691C186.025 70.7248 187.751 72.1874 189.626 73.4177C191.568 74.6916 193.671 75.7164 195.856 76.5131C198.209 77.3706 200.657 77.9639 203.12 78.3515C204.479 78.5654 205.843 78.7167 207.254 78.8169C207.959 78.867 208.677 78.9043 209.31 78.9246C209.944 78.9448 210.493 78.948 211.019 78.9506C214.136 78.966 216.399 78.9611 218.785 78.9592C221.172 78.9573 223.683 78.9583 226.172 78.9589C231.151 78.9599 236.045 78.9589 240.993 78.9592C240.993 78.4016 240.992 77.8707 240.992 77.0027C240.993 75.0272 240.997 71.3059 241.008 69.333C241.012 68.4608 241.018 67.9303 241.021 67.3677C236.115 67.3684 231.075 67.3664 226.202 67.3677C221.329 67.369 216.623 67.3736 210.936 67.3589C210.552 67.3579 210.165 67.3569 209.666 67.3414C209.167 67.3259 208.557 67.2961 207.965 67.2546C206.904 67.1802 205.898 67.0685 204.892 66.9092C203.178 66.6378 201.463 66.2284 199.823 65.6288C199.131 65.3757 198.452 65.0887 197.789 64.7662C197.141 64.4341 196.589 64.1135 196.033 63.7465C196.03 63.745 196.028 63.7435 196.023 63.7401C196.018 63.7367 196.016 63.7354 196.013 63.7341C195.501 63.4098 195.003 63.0326 194.505 62.6003C193.991 62.17 193.558 61.7549 193.125 61.2875C192.711 60.8155 192.266 60.284 191.905 59.7529C191.903 59.75 191.901 59.7471 191.896 59.7401C191.892 59.7334 191.889 59.7303 191.887 59.7271C191.474 59.1503 191.089 58.5166 190.771 57.958C190.035 56.597 189.429 55.0984 188.891 53.3656C188.619 52.467 188.386 51.5277 188.169 50.5365C187.944 49.4781 187.759 48.41 187.616 47.3371C187.466 46.1738 187.38 44.9515 187.29 43.7455C187.219 42.4511 187.188 41.0304 187.185 39.8481C187.184 39.6783 187.184 39.5134 187.185 39.3435C187.188 38.1558 187.219 36.726 187.308 35.5394C187.367 34.5015 187.469 33.3868 187.636 31.9802C187.929 29.9573 188.323 27.9453 188.923 25.991C189.407 24.417 190.024 22.8805 190.82 21.4375C191.159 20.8227 191.53 20.225 191.941 19.6563C192.323 19.1288 192.739 18.6263 193.182 18.1482C193.186 18.1441 193.19 18.1401 193.193 18.136C193.198 18.131 193.2 18.129 193.201 18.127C193.617 17.66 194.046 17.2418 194.53 16.8551C194.534 16.8519 194.538 16.8487 194.548 16.8406C194.556 16.8337 194.564 16.8268 194.572 16.8199C194.927 16.5143 195.3 16.2304 195.684 15.9615C195.892 15.8158 196.102 15.6746 196.316 15.5379C196.525 15.4042 196.738 15.2749 196.953 15.1505C197.172 15.0234 197.395 14.9014 197.621 14.7849C197.857 14.6629 198.097 14.5469 198.339 14.4366C198.85 14.2037 199.374 13.9965 199.904 13.81C199.912 13.8073 199.919 13.8046 199.927 13.8019C199.935 13.799 199.942 13.7961 199.95 13.7932C200.712 13.5005 201.496 13.2704 202.29 13.0735C203.182 12.8523 204.087 12.6731 204.988 12.5323C206.002 12.374 207.011 12.2644 208.076 12.189C208.669 12.147 209.279 12.1157 209.784 12.0994C210.29 12.0831 210.689 12.0819 211.085 12.0807C216.725 12.0642 221.435 12.0694 226.304 12.0708C231.172 12.0723 236.2 12.0701 241.1 12.0708C241.1 8.20773 241.1 4.34462 241.1 0.481502C231.236 0.481502 221.372 0.481502 211.508 0.481502Z" fill="#9A9A9A"/>
<path d="M99.9247 78.9592H163.445V67.3699H111.557V45.1319H154.291V34.3001H111.557V12.073H163.445V0.481512H99.9247V78.9592Z" fill="#9A9A9A"/>
<path d="M34.8333 78.9592C36.7591 78.9592 38.685 78.9592 40.6108 78.9592C42.1004 78.9592 43.5902 78.9435 45.0751 78.8097C45.7909 78.7452 46.5057 78.6533 47.2115 78.5208C47.9154 78.3886 48.6104 78.216 49.2905 77.9951C50.7271 77.5285 52.0969 76.8466 53.3377 75.9844C53.9899 75.5312 54.6064 75.0283 55.1859 74.486C55.7654 73.9437 56.3078 73.362 56.8114 72.749C57.2863 72.1711 57.7267 71.5655 58.1377 70.9409C58.5486 70.3164 58.93 69.6729 59.2894 69.0174C59.6275 68.4008 59.9462 67.7735 60.2474 67.1382C60.5485 66.5029 60.8321 65.8597 61.1126 65.215C61.9961 63.184 62.8477 61.1394 63.7072 59.0982C64.5667 57.057 65.4341 55.0191 66.2997 52.9804C68.031 48.9032 69.7553 44.823 71.4835 40.7444C72.8227 37.5837 74.1642 34.424 75.505 31.2639C76.8457 28.1039 78.1856 24.9434 79.5265 21.7834C80.8674 18.6234 82.2092 15.4638 83.5509 12.3042C84.8926 9.14453 86.2343 5.98487 87.5765 2.8254C87.9084 2.0441 88.2402 1.2628 88.5721 0.481512C84.3573 0.481512 80.1424 0.481512 75.9275 0.481512C75.7819 0.82482 75.6362 1.16813 75.4906 1.51145C71.4376 11.0656 67.3865 20.6205 63.341 30.1777C59.1388 40.0897 54.9365 50.0015 50.7284 59.911C50.4733 60.5116 50.2182 61.1122 49.9459 61.7052C49.7207 62.1954 49.4837 62.6804 49.232 63.1579C49.0139 63.5719 48.7848 63.9802 48.5355 64.3758C48.3453 64.6775 48.1433 64.9719 47.9245 65.2542C47.6195 65.6477 47.2817 66.0178 46.8957 66.3324C46.6965 66.4655 46.5817 66.5489 46.5809 66.5494C46.5722 66.5541 46.5634 66.5589 46.5546 66.5636C46.5458 66.5682 46.5369 66.5729 46.528 66.5775C46.459 66.6161 46.3742 66.6633 46.2874 66.7117C46.1738 66.7615 46.0603 66.8114 45.9467 66.8613C45.8133 66.9108 45.7406 66.9401 45.7399 66.9402C45.7324 66.9425 45.7249 66.9448 45.7174 66.9471C45.7098 66.9494 45.7023 66.9516 45.6947 66.9539C45.5113 67.0125 45.3414 67.0593 45.1474 67.1038C44.8639 67.1593 44.6284 67.2017 44.3661 67.2407C44.0419 67.273 43.7331 67.3001 43.418 67.3152C43.4099 67.3156 43.4017 67.316 43.3935 67.3164C43.3854 67.317 43.3772 67.3177 43.3691 67.3183C42.7802 67.3636 42.116 67.3705 41.4304 67.3707C31.9921 45.0743 22.5538 22.7779 13.1155 0.481512C8.90743 0.481512 4.69935 0.481512 0.491272 0.481512C0.821587 1.26208 1.15191 2.04266 1.48221 2.82323C12.0756 27.8573 22.6627 52.8853 33.2738 77.9286C33.4194 78.2721 33.5649 78.6157 33.7105 78.9592C34.0848 78.9592 34.4591 78.9592 34.8333 78.9592Z" fill="#9A9A9A"/>
</svg>
